# 3ds Max Wavefront OBJ Exporter v0.97b - (c)2007 guruware
# File Created: 17.04.2012 10:38:49

mtllib Bridge.mtl

#
# object Bridge
#

v  -20.5002 33.9915 13.4312
v  20.5002 33.9915 13.4312
v  20.5002 33.9915 6.5898
v  -20.5002 33.9915 6.5898
v  20.5002 -0.1755 13.4312
v  20.5002 15.0841 13.4312
v  15.2799 15.0841 13.4312
v  15.2799 -0.1755 13.4312
v  20.5002 -0.1755 6.5898
v  20.5002 15.0841 6.5898
v  15.2799 -0.1755 6.5898
v  15.2799 15.0841 6.5898
v  -20.5002 -0.1755 13.4312
v  -20.5002 15.0841 13.4312
v  -20.5002 15.0841 6.5898
v  -20.5002 -0.1755 6.5898
v  14.5321 21.4182 6.5898
v  15.2799 17.7794 6.5898
v  -14.5361 21.4121 13.4312
v  -15.2799 17.7794 13.4312
v  -15.2799 15.0841 6.5898
v  -15.2799 -0.1755 6.5898
v  -15.2799 15.0841 13.4312
v  -15.2799 -0.1755 13.4312
v  13.5716 14.1149 13.4312
v  13.5716 14.1149 6.5898
v  13.5716 -0.1755 6.5898
v  13.5716 -0.1755 13.4312
v  15.2799 17.7794 13.4312
v  14.5321 21.4182 13.4312
v  12.3617 24.7009 13.4312
v  12.3617 24.7009 6.5898
v  8.9813 27.3060 13.4312
v  8.9813 27.3060 6.5898
v  4.7218 28.9785 13.4312
v  4.7218 28.9785 6.5898
v  -0.0000 29.5549 13.4312
v  -0.0000 29.5549 6.5898
v  -4.7218 28.9785 13.4312
v  -4.7218 28.9785 6.5898
v  -8.9813 27.3060 13.4312
v  -8.9813 27.3060 6.5898
v  -12.3617 24.7008 13.4312
v  -12.3617 24.7008 6.5898
v  -14.5361 21.4121 6.5898
v  -15.2799 17.7794 6.5898
v  -13.5716 -0.1755 13.4312
v  -13.5716 -0.1755 6.5898
v  -13.5716 14.1149 6.5898
v  -13.5716 14.1149 13.4312
v  27.3336 34.0598 -12.6822
v  27.3336 34.0598 12.6822
v  27.3336 -0.1755 12.6822
v  27.3336 -0.1755 -12.6822
v  -20.5111 40.8249 -12.6822
v  -20.5111 40.8249 12.6822
v  20.5111 40.8249 12.6822
v  20.5111 40.8249 -12.6822
v  -27.3336 34.6010 -12.6822
v  -27.3336 34.6010 12.6822
v  -27.3336 40.2837 12.6822
v  -27.3336 40.2837 -12.6822
v  20.5111 34.9427 -13.4432
v  -20.5111 34.9427 -13.4432
v  -20.5111 39.9420 -13.4432
v  20.5111 39.9420 -13.4432
v  -20.5111 34.9427 13.4432
v  20.5111 34.9427 13.4432
v  20.5111 39.9420 13.4432
v  -20.5111 39.9420 13.4432
v  27.3336 40.2837 -12.6822
v  27.3336 40.2837 12.6822
v  27.3336 34.6010 12.6822
v  27.3336 34.6010 -12.6822
v  -27.3336 -0.1755 -12.6822
v  -27.3336 -0.1755 12.6822
v  -27.3336 34.0598 12.6822
v  -27.3336 34.0598 -12.6822
v  20.5111 -0.1755 -12.6822
v  20.5111 34.0598 -12.6822
v  -20.5111 34.0598 -12.6822
v  -20.5111 -0.1755 -12.6822
v  20.5111 34.0598 12.6822
v  20.5111 -0.1755 12.6822
v  -20.5111 -0.1755 12.6822
v  -20.5111 34.0598 12.6822
v  -27.3336 40.8249 -12.6822
v  -27.3336 40.8249 12.6822
v  27.3336 40.8249 12.6822
v  27.3336 40.8249 -12.6822
v  26.9919 34.9427 -13.4432
v  26.9919 39.9420 -13.4432
v  -26.9919 39.9420 -13.4432
v  -26.9919 34.9427 -13.4432
v  -26.9919 34.9427 13.4432
v  -26.9919 39.9420 13.4432
v  26.9919 39.9420 13.4432
v  26.9919 34.9427 13.4432
v  -20.5111 34.6010 -12.6822
v  20.5111 34.6010 -12.6822
v  20.5111 40.2837 -12.6822
v  -20.5111 40.2837 -12.6822
v  20.5111 34.6010 12.6822
v  -20.5111 34.6010 12.6822
v  -20.5111 40.2837 12.6822
v  20.5111 40.2837 12.6822
v  -20.5002 33.9915 -6.4542
v  20.5002 33.9915 -6.4542
v  20.5002 33.9915 -13.2956
v  -20.5002 33.9915 -13.2956
v  20.5002 -0.1755 -6.4542
v  20.5002 15.0841 -6.4542
v  15.2799 15.0841 -6.4542
v  15.2799 -0.1755 -6.4542
v  20.5002 -0.1755 -13.2956
v  20.5002 15.0841 -13.2956
v  15.2799 -0.1755 -13.2956
v  15.2799 15.0841 -13.2956
v  -20.5002 -0.1755 -6.4542
v  -20.5002 15.0841 -6.4542
v  -20.5002 15.0841 -13.2956
v  -20.5002 -0.1755 -13.2956
v  14.5321 21.4182 -13.2956
v  15.2799 17.7794 -13.2956
v  -14.5361 21.4121 -6.4542
v  -15.2799 17.7794 -6.4542
v  -15.2799 15.0841 -13.2956
v  -15.2799 -0.1755 -13.2956
v  -15.2799 15.0841 -6.4542
v  -15.2799 -0.1755 -6.4542
v  13.5716 14.1149 -6.4542
v  13.5716 14.1149 -13.2956
v  13.5716 -0.1755 -13.2956
v  13.5716 -0.1755 -6.4542
v  15.2799 17.7794 -6.4542
v  14.5321 21.4182 -6.4542
v  12.3617 24.7009 -6.4542
v  12.3617 24.7009 -13.2956
v  8.9813 27.3060 -6.4542
v  8.9813 27.3060 -13.2956
v  4.7218 28.9785 -6.4542
v  4.7218 28.9785 -13.2956
v  -0.0000 29.5549 -6.4542
v  -0.0000 29.5549 -13.2956
v  -4.7218 28.9785 -6.4542
v  -4.7218 28.9785 -13.2956
v  -8.9813 27.3060 -6.4542
v  -8.9813 27.3060 -13.2956
v  -12.3617 24.7008 -6.4542
v  -12.3617 24.7008 -13.2956
v  -14.5361 21.4121 -13.2956
v  -15.2799 17.7794 -13.2956
v  -13.5716 -0.1755 -6.4542
v  -13.5716 -0.1755 -13.2956
v  -13.5716 14.1149 -13.2956
v  -13.5716 14.1149 -6.4542
v  13.5699 -0.1755 -6.4542
v  13.5699 -0.1755 6.5898
v  13.5699 7.2921 6.5898
v  13.5699 7.2921 -6.4542
v  15.2783 7.2931 -6.4542
v  15.2783 7.2931 6.5898
v  20.4985 7.2931 6.5898
v  20.4985 7.2931 -6.4542
v  20.4985 -0.1755 6.5898
v  20.4985 -0.1755 -6.4542
v  -20.5019 7.2931 -6.4542
v  -20.5019 7.2931 6.5898
v  -15.2816 7.2931 6.5898
v  -15.2816 7.2931 -6.4542
v  -13.5733 7.2921 6.5898
v  -13.5733 7.2921 -6.4542
v  -20.5019 -0.1755 -6.4542
v  -20.5019 -0.1755 6.5898
v  -13.5733 -0.1755 6.5898
v  -13.5733 -0.1755 -6.4542
# 176 vertices

vn 0.0000 1.0000 -0.0000
vn 0.0000 -0.0000 1.0000
vn 1.0000 0.0000 -0.0000
vn 0.0000 -0.0000 -1.0000
vn -1.0000 0.0000 -0.0000
vn -0.0000 0.0000 -1.0000
vn 0.0000 0.0000 -1.0000
vn -0.0000 -0.0000 1.0000
vn -0.0000 0.0000 1.0000
vn -0.0000 -0.0000 -1.0000
vn -1.0000 0.0000 0.0000
vn -0.9795 -0.2013 0.0000
vn -0.9795 -0.2013 -0.0000
vn -0.8342 -0.5515 -0.0000
vn -0.6104 -0.7921 -0.0000
vn -0.3655 -0.9308 -0.0000
vn -0.3655 -0.9308 0.0000
vn -0.1212 -0.9926 0.0000
vn -0.1212 -0.9926 -0.0000
vn 0.1212 -0.9926 -0.0000
vn 0.3655 -0.9308 -0.0000
vn 0.6104 -0.7921 -0.0000
vn 0.8342 -0.5515 -0.0000
vn 0.8342 -0.5515 0.0000
vn 0.9797 -0.2006 0.0000
vn 0.9797 -0.2006 -0.0000
vn 0.0000 0.0000 1.0000
vn -0.4935 0.8698 0.0000
vn 0.4935 0.8698 -0.0000
vn 0.9972 0.0000 -0.0747
vn 0.0000 -0.9972 -0.0747
vn -0.9972 0.0000 -0.0747
vn 0.0000 0.9972 -0.0747
vn -0.9972 -0.0000 0.0747
vn 0.0000 -0.9972 0.0747
vn 0.9972 -0.0000 0.0747
vn 0.0000 0.9972 0.0747
vn -0.0006 1.0000 -0.0000
vn 0.0006 1.0000 -0.0000
# 39 vertex normals

vt 0.7020 0.8838 0.0000
vt 0.9837 0.8838 0.0000
vt 0.9837 0.9309 0.0000
vt 0.7020 0.9309 0.0000
vt 0.3926 0.4652 0.0000
vt 0.3924 0.5700 0.0000
vt 0.3565 0.5699 0.0000
vt 0.3568 0.4651 0.0000
vt 0.0526 0.7614 0.0000
vt 0.0526 0.8648 0.0000
vt 0.0062 0.8648 0.0000
vt 0.0062 0.7614 0.0000
vt 0.4427 0.7633 0.0000
vt 0.4430 0.8671 0.0000
vt 0.4075 0.8672 0.0000
vt 0.4072 0.7633 0.0000
vt 0.0518 0.4633 0.0000
vt 0.0518 0.5663 0.0000
vt 0.0056 0.5663 0.0000
vt 0.0056 0.4633 0.0000
vt 0.0526 0.9929 0.0000
vt 0.0062 0.9929 0.0000
vt 0.4482 0.9102 0.0000
vt 0.4430 0.8854 0.0000
vt 0.0518 0.6939 0.0000
vt 0.0056 0.6939 0.0000
vt 0.1513 0.6132 0.0000
vt 0.1104 0.5697 0.0000
vt 0.1462 0.5882 0.0000
vt 0.6512 0.8669 0.0000
vt 0.6512 0.7630 0.0000
vt 0.6867 0.7631 0.0000
vt 0.6867 0.8669 0.0000
vt 0.1462 0.5697 0.0000
vt 0.1103 0.4649 0.0000
vt 0.1461 0.4648 0.0000
vt 0.2758 0.5564 0.0000
vt 0.2258 0.5564 0.0000
vt 0.2258 0.4662 0.0000
vt 0.2758 0.4662 0.0000
vt 0.7107 0.7518 0.0000
vt 0.7107 0.7073 0.0000
vt 0.7290 0.7073 0.0000
vt 0.7290 0.7518 0.0000
vt 0.6854 0.7518 0.0000
vt 0.6854 0.7073 0.0000
vt 0.6586 0.7518 0.0000
vt 0.6586 0.7073 0.0000
vt 0.6296 0.7518 0.0000
vt 0.6296 0.7073 0.0000
vt 0.5984 0.7518 0.0000
vt 0.5984 0.7073 0.0000
vt 0.5661 0.7518 0.0000
vt 0.5661 0.7073 0.0000
vt 0.5337 0.7518 0.0000
vt 0.5337 0.7073 0.0000
vt 0.5025 0.7518 0.0000
vt 0.5025 0.7073 0.0000
vt 0.4735 0.7517 0.0000
vt 0.4735 0.7073 0.0000
vt 0.4467 0.7517 0.0000
vt 0.4467 0.7073 0.0000
vt 0.4214 0.7517 0.0000
vt 0.4214 0.7073 0.0000
vt 0.4031 0.7517 0.0000
vt 0.4031 0.7073 0.0000
vt 0.5740 0.4650 0.0000
vt 0.6239 0.4650 0.0000
vt 0.6239 0.5552 0.0000
vt 0.5740 0.5552 0.0000
vt 0.1663 0.6358 0.0000
vt 0.1103 0.6997 0.0000
vt 0.1895 0.6538 0.0000
vt 0.2188 0.6653 0.0000
vt 0.2513 0.6693 0.0000
vt 0.3921 0.7000 0.0000
vt 0.2837 0.6653 0.0000
vt 0.3130 0.6539 0.0000
vt 0.3363 0.6360 0.0000
vt 0.3512 0.6135 0.0000
vt 0.3564 0.5885 0.0000
vt 0.6512 0.8852 0.0000
vt 0.4630 0.9325 0.0000
vt 0.4077 0.9958 0.0000
vt 0.4860 0.9502 0.0000
vt 0.5150 0.9615 0.0000
vt 0.5472 0.9654 0.0000
vt 0.5793 0.9615 0.0000
vt 0.6867 0.9955 0.0000
vt 0.6083 0.9501 0.0000
vt 0.6313 0.9323 0.0000
vt 0.6461 0.9099 0.0000
vt 0.4543 0.7632 0.0000
vt 0.4546 0.8605 0.0000
vt 0.3448 0.5633 0.0000
vt 0.3450 0.4650 0.0000
vt 0.2758 0.5688 0.0000
vt 0.2258 0.5688 0.0000
vt 0.6395 0.8603 0.0000
vt 0.6396 0.7630 0.0000
vt 0.6239 0.5676 0.0000
vt 0.5740 0.5676 0.0000
vt 0.1579 0.4648 0.0000
vt 0.1580 0.5630 0.0000
vt 0.1818 0.2353 0.0000
vt 0.0111 0.2353 0.0000
vt 0.0111 0.0050 0.0000
vt 0.1818 0.0050 0.0000
vt 0.2347 0.4599 0.0000
vt 0.2347 0.2855 0.0000
vt 0.5167 0.2855 0.0000
vt 0.5167 0.4599 0.0000
vt 0.7699 0.5546 0.0000
vt 0.9408 0.5546 0.0000
vt 0.9408 0.5929 0.0000
vt 0.7699 0.5929 0.0000
vt 0.6157 0.2415 0.0000
vt 0.8956 0.2415 0.0000
vt 0.8956 0.2741 0.0000
vt 0.6157 0.2741 0.0000
vt 0.2348 0.2425 0.0000
vt 0.5147 0.2425 0.0000
vt 0.5147 0.2760 0.0000
vt 0.2348 0.2760 0.0000
vt 0.1818 0.2772 0.0000
vt 0.0111 0.2772 0.0000
vt 0.0111 0.2390 0.0000
vt 0.1818 0.2390 0.0000
vt 0.7699 0.3202 0.0000
vt 0.9408 0.3202 0.0000
vt 0.9408 0.5509 0.0000
vt 0.7699 0.5509 0.0000
vt 0.5692 0.2355 0.0000
vt 0.5692 0.0019 0.0000
vt 0.6157 0.0019 0.0000
vt 0.6157 0.2355 0.0000
vt 0.9421 0.0019 0.0000
vt 0.9421 0.2355 0.0000
vt 0.8956 0.2355 0.0000
vt 0.8956 0.0019 0.0000
vt 0.5613 0.0029 0.0000
vt 0.5613 0.2365 0.0000
vt 0.5147 0.2365 0.0000
vt 0.5147 0.0029 0.0000
vt 0.1883 0.2365 0.0000
vt 0.1883 0.0029 0.0000
vt 0.2348 0.0029 0.0000
vt 0.2348 0.2365 0.0000
vt 0.1878 0.4599 0.0000
vt 0.1878 0.2855 0.0000
vt 0.5636 0.2855 0.0000
vt 0.5636 0.4599 0.0000
vt 0.5715 0.2415 0.0000
vt 0.5715 0.2741 0.0000
vt 0.9398 0.2741 0.0000
vt 0.9398 0.2415 0.0000
vt 0.1906 0.2425 0.0000
vt 0.1906 0.2760 0.0000
vt 0.5589 0.2760 0.0000
vt 0.5589 0.2425 0.0000
vt 0.9408 0.5965 0.0000
vt 0.7699 0.5965 0.0000
vt 0.8956 0.2392 0.0000
vt 0.6157 0.2392 0.0000
vt 0.8956 0.2816 0.0000
vt 0.6157 0.2816 0.0000
vt 0.6157 0.2785 0.0000
vt 0.8956 0.2785 0.0000
vt 0.5147 0.2402 0.0000
vt 0.2348 0.2402 0.0000
vt 0.5147 0.2826 0.0000
vt 0.2348 0.2826 0.0000
vt 0.2348 0.2805 0.0000
vt 0.5147 0.2805 0.0000
vt 0.1818 0.2808 0.0000
vt 0.0111 0.2808 0.0000
vt 0.5692 0.2392 0.0000
vt 0.5692 0.2816 0.0000
vt 0.5692 0.2785 0.0000
vt 0.9421 0.2816 0.0000
vt 0.9421 0.2785 0.0000
vt 0.9421 0.2392 0.0000
vt 0.1883 0.2402 0.0000
vt 0.1883 0.2826 0.0000
vt 0.1883 0.2805 0.0000
vt 0.5613 0.2826 0.0000
vt 0.5613 0.2805 0.0000
vt 0.5613 0.2402 0.0000
vt 0.7010 0.9446 0.0000
vt 0.9827 0.9446 0.0000
vt 0.9827 0.9916 0.0000
vt 0.7010 0.9916 0.0000
vt 0.3967 0.7613 0.0000
vt 0.3964 0.8661 0.0000
vt 0.3605 0.8660 0.0000
vt 0.3608 0.7612 0.0000
vt 0.1061 0.7611 0.0000
vt 0.1061 0.8645 0.0000
vt 0.0597 0.8645 0.0000
vt 0.0597 0.7611 0.0000
vt 0.4362 0.4648 0.0000
vt 0.4365 0.5686 0.0000
vt 0.4010 0.5687 0.0000
vt 0.4007 0.4649 0.0000
vt 0.1035 0.4633 0.0000
vt 0.1035 0.5663 0.0000
vt 0.0573 0.5663 0.0000
vt 0.0573 0.4633 0.0000
vt 0.1061 0.9926 0.0000
vt 0.0597 0.9926 0.0000
vt 0.4416 0.6117 0.0000
vt 0.4365 0.5870 0.0000
vt 0.1035 0.6939 0.0000
vt 0.0573 0.6939 0.0000
vt 0.1554 0.9093 0.0000
vt 0.1144 0.8658 0.0000
vt 0.1503 0.8843 0.0000
vt 0.6446 0.5684 0.0000
vt 0.6447 0.4646 0.0000
vt 0.6802 0.4646 0.0000
vt 0.6801 0.5684 0.0000
vt 0.1503 0.8658 0.0000
vt 0.1143 0.7610 0.0000
vt 0.1502 0.7609 0.0000
vt 0.2169 0.5564 0.0000
vt 0.1669 0.5564 0.0000
vt 0.1669 0.4662 0.0000
vt 0.2169 0.4662 0.0000
vt 0.3762 0.7522 0.0000
vt 0.3762 0.7078 0.0000
vt 0.3945 0.7078 0.0000
vt 0.3945 0.7522 0.0000
vt 0.3509 0.7522 0.0000
vt 0.3509 0.7078 0.0000
vt 0.3241 0.7522 0.0000
vt 0.3241 0.7078 0.0000
vt 0.2951 0.7522 0.0000
vt 0.2951 0.7078 0.0000
vt 0.2639 0.7522 0.0000
vt 0.2639 0.7078 0.0000
vt 0.2315 0.7522 0.0000
vt 0.2315 0.7078 0.0000
vt 0.1992 0.7522 0.0000
vt 0.1992 0.7078 0.0000
vt 0.1680 0.7522 0.0000
vt 0.1680 0.7078 0.0000
vt 0.1390 0.7522 0.0000
vt 0.1390 0.7078 0.0000
vt 0.1121 0.7522 0.0000
vt 0.1121 0.7078 0.0000
vt 0.0869 0.7522 0.0000
vt 0.0869 0.7078 0.0000
vt 0.0686 0.7522 0.0000
vt 0.0686 0.7078 0.0000
vt 0.5176 0.4646 0.0000
vt 0.5675 0.4646 0.0000
vt 0.5675 0.5548 0.0000
vt 0.5176 0.5548 0.0000
vt 0.1703 0.9319 0.0000
vt 0.1144 0.9958 0.0000
vt 0.1936 0.9499 0.0000
vt 0.2228 0.9614 0.0000
vt 0.2553 0.9654 0.0000
vt 0.3961 0.9961 0.0000
vt 0.2878 0.9614 0.0000
vt 0.3171 0.9500 0.0000
vt 0.3403 0.9321 0.0000
vt 0.3553 0.9096 0.0000
vt 0.3605 0.8846 0.0000
vt 0.6446 0.5868 0.0000
vt 0.4565 0.6340 0.0000
vt 0.4012 0.6973 0.0000
vt 0.4795 0.6517 0.0000
vt 0.5085 0.6631 0.0000
vt 0.5407 0.6670 0.0000
vt 0.5728 0.6630 0.0000
vt 0.6802 0.6971 0.0000
vt 0.6018 0.6516 0.0000
vt 0.6248 0.6339 0.0000
vt 0.6396 0.6115 0.0000
vt 0.4478 0.4648 0.0000
vt 0.4481 0.5620 0.0000
vt 0.3488 0.8593 0.0000
vt 0.3491 0.7611 0.0000
vt 0.2169 0.5688 0.0000
vt 0.1669 0.5688 0.0000
vt 0.6330 0.5618 0.0000
vt 0.6331 0.4646 0.0000
vt 0.5675 0.5672 0.0000
vt 0.5176 0.5672 0.0000
vt 0.1619 0.7609 0.0000
vt 0.1620 0.8591 0.0000
vt 0.2189 0.7618 0.0000
vt 0.3024 0.7618 0.0000
vt 0.3024 0.8096 0.0000
vt 0.2189 0.8096 0.0000
vt 0.2189 0.8206 0.0000
vt 0.3024 0.8206 0.0000
vt 0.3024 0.8540 0.0000
vt 0.2189 0.8540 0.0000
vt 0.3024 0.9018 0.0000
vt 0.2189 0.9018 0.0000
vt 0.5902 0.8537 0.0000
vt 0.5067 0.8537 0.0000
vt 0.5067 0.8202 0.0000
vt 0.5902 0.8202 0.0000
vt 0.5067 0.8093 0.0000
vt 0.5902 0.8093 0.0000
vt 0.5902 0.9014 0.0000
vt 0.5067 0.9014 0.0000
vt 0.5067 0.7615 0.0000
vt 0.5902 0.7615 0.0000
# 312 texture coords

g Bridge
usemtl Bridge
s 4
f 1/1/1 2/2/1 3/3/1 4/4/1 
s 8
f 5/5/2 6/6/2 7/7/2 8/8/2 
s 16
f 9/9/3 10/10/3 6/11/3 5/12/3 
s 32
f 11/13/4 12/14/4 10/15/4 9/16/4 
s 64
f 13/17/5 14/18/5 15/19/5 16/20/5 
s 16
f 3/21/3 2/22/3 6/11/3 10/10/3 
s 32
f 17/23/6 10/15/4 18/24/7 
s 64
f 1/25/5 4/26/5 15/19/5 14/18/5 
s 8
f 19/27/2 14/28/8 20/29/9 
s 32
f 21/30/4 22/31/4 16/32/4 15/33/10 
s 8
f 23/34/2 14/28/8 13/35/2 24/36/2 
s 1
f 25/37/5 26/38/5 27/39/5 28/40/5 
s 2
f 29/41/11 18/42/11 12/43/11 7/44/11 
s 1
f 30/45/12 17/46/13 18/42/12 29/41/12 
s 2
f 31/47/14 32/48/14 17/46/14 30/45/14 
s 1
f 33/49/15 34/50/15 32/48/15 31/47/15 
s 2
f 35/51/16 36/52/17 34/50/17 33/49/16 
s 1
f 37/53/18 38/54/19 36/52/19 35/51/18 
s 2
f 39/55/20 40/56/20 38/54/20 37/53/20 
s 1
f 41/57/21 42/58/21 40/56/21 39/55/21 
s 2
f 43/59/22 44/60/22 42/58/22 41/57/22 
s 1
f 19/61/23 45/62/24 44/60/24 43/59/23 
s 2
f 20/63/25 46/64/26 45/62/25 19/61/25 
s 1
f 23/65/3 21/66/3 46/64/3 20/63/3 
s 2
f 47/67/3 48/68/3 49/69/3 50/70/3 
s 8
f 14/28/8 23/34/2 20/29/9 
f 43/71/27 1/72/9 14/28/8 19/27/2 
f 43/71/27 41/73/27 1/72/9 
f 41/73/27 39/74/27 1/72/9 
f 37/75/9 2/76/27 1/72/9 39/74/27 
f 37/75/9 35/77/9 2/76/27 
f 35/77/9 33/78/27 2/76/27 
f 33/78/27 31/79/9 2/76/27 
f 30/80/9 6/6/2 2/76/27 31/79/9 
f 29/81/27 7/7/2 6/6/2 
s 32
f 10/15/4 12/14/4 18/24/7 
f 46/82/7 21/30/4 15/33/10 
s 8
f 30/80/9 29/81/27 6/6/2 
s 32
f 17/23/6 32/83/6 3/84/7 10/15/4 
f 32/83/6 34/85/7 3/84/7 
f 34/85/7 36/86/6 3/84/7 
f 36/86/6 38/87/6 3/84/7 
f 38/87/6 40/88/7 4/89/6 3/84/7 
f 40/88/7 42/90/7 4/89/6 
f 42/90/7 44/91/6 4/89/6 
f 44/91/6 45/92/7 15/33/10 4/89/6 
f 45/92/7 46/82/7 15/33/10 
s off
f 12/14/4 11/13/4 27/93/4 26/94/4 
f 8/8/2 7/7/2 25/95/2 28/96/2 
f 7/97/28 12/98/28 26/38/28 25/37/28 
f 22/31/10 21/30/10 49/99/10 48/100/10 
f 21/101/29 23/102/29 50/70/29 49/69/29 
f 23/34/8 24/36/8 47/103/8 50/104/8 
s 16
f 51/105/3 52/106/3 53/107/3 54/108/3 
s 32
f 55/109/1 56/110/1 57/111/1 58/112/1 
s 64
f 59/113/5 60/114/5 61/115/5 62/116/5 
s 2
f 63/117/7 64/118/7 65/119/7 66/120/7 
s 4
f 67/121/27 68/122/27 69/123/27 70/124/27 
s 16
f 71/125/3 72/126/3 73/127/3 74/128/3 
s 64
f 75/129/5 76/130/5 77/131/5 78/132/5 
s 2
f 51/133/7 54/134/7 79/135/7 80/136/7 
f 75/137/7 78/138/7 81/139/7 82/140/7 
s 4
f 53/141/2 52/142/2 83/143/2 84/144/2 
f 77/145/2 76/146/2 85/147/2 86/148/2 
s 32
f 87/149/1 88/150/1 56/110/1 55/109/1 
f 89/151/1 90/152/1 58/112/1 57/111/1 
s 2
f 91/153/7 63/117/7 66/120/7 92/154/7 
f 93/155/7 65/119/7 64/118/7 94/156/7 
s 4
f 95/157/27 67/121/27 70/124/27 96/158/27 
f 97/159/27 69/123/27 68/122/27 98/160/27 
s 64
f 78/132/5 77/131/5 60/114/5 59/113/5 
f 88/161/5 87/162/5 62/116/5 61/115/5 
s 2
f 80/136/7 81/139/7 99/163/7 100/164/7 
f 55/165/7 58/166/7 101/167/7 102/168/7 
s 4
f 86/148/2 83/143/2 103/169/27 104/170/27 
f 57/171/27 56/172/27 105/173/27 106/174/27 
s 16
f 90/175/3 89/176/3 72/126/3 71/125/3 
f 52/106/3 51/105/3 74/128/3 73/127/3 
s 2
f 51/133/7 80/136/7 100/164/7 74/177/7 
f 58/166/7 90/178/7 71/179/7 101/167/7 
f 87/180/7 55/165/7 102/168/7 62/181/7 
f 81/139/7 78/138/7 59/182/7 99/163/7 
s 4
f 77/145/2 86/148/2 104/170/27 60/183/27 
f 56/172/27 88/184/27 61/185/27 105/173/27 
f 89/186/27 57/171/27 106/174/27 72/187/27 
f 83/143/2 52/142/2 73/188/27 103/169/27 
s off
f 71/179/30 74/177/30 91/153/30 92/154/30 
f 74/177/31 100/164/31 63/117/31 91/153/31 
f 100/164/31 99/163/31 64/118/31 63/117/31 
f 99/163/31 59/182/31 94/156/31 64/118/31 
f 59/182/32 62/181/32 93/155/32 94/156/32 
f 62/181/33 102/168/33 65/119/33 93/155/33 
f 102/168/33 101/167/33 66/120/33 65/119/33 
f 101/167/33 71/179/33 92/154/33 66/120/33 
f 61/185/34 60/183/34 95/157/34 96/158/34 
f 60/183/35 104/170/35 67/121/35 95/157/35 
f 104/170/35 103/169/35 68/122/35 67/121/35 
f 103/169/35 73/188/35 98/160/35 68/122/35 
f 73/188/36 72/187/36 97/159/36 98/160/36 
f 72/187/37 106/174/37 69/123/37 97/159/37 
f 106/174/37 105/173/37 70/124/37 69/123/37 
f 105/173/37 61/185/37 96/158/37 70/124/37 
s 4
f 107/189/1 108/190/1 109/191/1 110/192/1 
s 8
f 111/193/27 112/194/27 113/195/27 114/196/27 
s 16
f 115/197/3 116/198/3 112/199/3 111/200/3 
s 32
f 117/201/7 118/202/7 116/203/7 115/204/7 
s 64
f 119/205/5 120/206/5 121/207/5 122/208/5 
s 16
f 109/209/3 108/210/3 112/199/3 116/198/3 
s 32
f 123/211/7 116/203/7 124/212/7 
s 64
f 107/213/5 110/214/5 121/207/5 120/206/5 
s 8
f 125/215/27 120/216/27 126/217/27 
s 32
f 127/218/7 128/219/7 122/220/7 121/221/7 
s 8
f 129/222/27 120/216/27 119/223/27 130/224/27 
s 1
f 131/225/5 132/226/5 133/227/5 134/228/5 
s 2
f 135/229/11 124/230/11 118/231/11 113/232/11 
s 1
f 136/233/12 123/234/13 124/230/12 135/229/12 
s 2
f 137/235/14 138/236/14 123/234/14 136/233/14 
s 1
f 139/237/15 140/238/15 138/236/15 137/235/15 
s 2
f 141/239/16 142/240/17 140/238/17 139/237/16 
s 1
f 143/241/18 144/242/19 142/240/19 141/239/18 
s 2
f 145/243/20 146/244/20 144/242/20 143/241/20 
s 1
f 147/245/21 148/246/21 146/244/21 145/243/21 
s 2
f 149/247/22 150/248/22 148/246/22 147/245/22 
s 1
f 125/249/23 151/250/24 150/248/24 149/247/23 
s 2
f 126/251/25 152/252/26 151/250/25 125/249/25 
s 1
f 129/253/3 127/254/3 152/252/3 126/251/3 
s 2
f 153/255/3 154/256/3 155/257/3 156/258/3 
s 8
f 120/216/27 129/222/27 126/217/27 
f 149/259/27 107/260/27 120/216/27 125/215/27 
f 149/259/27 147/261/27 107/260/27 
f 147/261/27 145/262/27 107/260/27 
f 143/263/27 108/264/27 107/260/27 145/262/27 
f 143/263/27 141/265/27 108/264/27 
f 141/265/27 139/266/27 108/264/27 
f 139/266/27 137/267/27 108/264/27 
f 136/268/27 112/194/27 108/264/27 137/267/27 
f 135/269/27 113/195/27 112/194/27 
s 32
f 116/203/7 118/202/7 124/212/7 
f 152/270/7 127/218/7 121/221/7 
s 8
f 136/268/27 135/269/27 112/194/27 
s 32
f 123/211/7 138/271/7 109/272/7 116/203/7 
f 138/271/7 140/273/7 109/272/7 
f 140/273/7 142/274/7 109/272/7 
f 142/274/7 144/275/7 109/272/7 
f 144/275/7 146/276/7 110/277/7 109/272/7 
f 146/276/7 148/278/7 110/277/7 
f 148/278/7 150/279/7 110/277/7 
f 150/279/7 151/280/7 121/221/7 110/277/7 
f 151/280/7 152/270/7 121/221/7 
s off
f 118/202/7 117/201/7 133/281/7 132/282/7 
f 114/196/27 113/195/27 131/283/27 134/284/27 
f 113/285/28 118/286/28 132/226/28 131/225/28 
f 128/219/7 127/218/7 155/287/7 154/288/7 
f 127/289/29 129/290/29 156/258/29 155/257/29 
f 129/222/27 130/224/27 153/291/27 156/292/27 
s 2
f 157/293/5 158/294/5 159/295/5 160/296/5 
s 1
f 161/297/1 162/298/1 163/299/1 164/300/1 
s 4
f 160/296/38 159/295/38 162/298/38 161/297/38 
s 2
f 164/300/3 163/299/3 165/301/3 166/302/3 
s 1
f 167/303/1 168/304/1 169/305/1 170/306/1 
s 4
f 170/306/39 169/305/39 171/307/39 172/308/39 
s 2
f 173/309/5 174/310/5 168/304/5 167/303/5 
s 1
f 172/308/3 171/307/3 175/311/3 176/312/3 
# 127 polygons - 36 triangles

