# Blender v2.79 (sub 0) OBJ File: ''
# www.blender.org
mtllib Cave.mtl
o Icosphere
v 0.000000 -4.278078 0.000000
v 13.078996 -4.472150 -7.236000
v 8.506400 -4.472150 2.763850
v 0.000000 -4.472150 12.044930
v -8.506400 -4.472150 2.763850
v -13.078996 -4.472150 -7.236000
v 10.952216 4.472150 -2.763850
v 6.380317 7.847617 10.336680
v -6.380317 7.847617 10.336680
v -10.952216 4.472150 -2.763850
v 0.000000 -1.881490 3.379812
v 0.000000 10.000000 4.205536
vn -0.0199 -0.9998 -0.0091
vn 0.0000 -0.9996 0.0268
vn -0.0176 -0.9997 -0.0161
vn 0.0176 -0.9997 -0.0161
vn 0.0199 -0.9998 -0.0091
vn 0.0000 0.9715 -0.2371
vn 0.9094 0.0083 0.4158
vn 0.7084 -0.2768 0.6493
vn -0.7084 -0.2768 0.6493
vn -0.9094 0.0083 0.4158
vn -0.5799 0.2498 -0.7754
vn 0.9393 -0.0468 0.3399
vn 0.0000 0.1373 0.9905
vn -0.9393 -0.0468 0.3399
vn 0.5799 0.2498 -0.7754
vn -0.5144 0.0595 -0.8555
vn 0.3994 0.9118 -0.0955
vn 0.0000 0.9435 0.3312
vn -0.3994 0.9118 -0.0955
vn 0.5144 0.0595 -0.8555
usemtl None
s off
f 1//1 2//1 3//1
f 2//2 1//2 6//2
f 1//3 3//3 4//3
f 1//4 4//4 5//4
f 1//5 5//5 6//5
f 2//6 6//6 11//6
f 3//7 2//7 7//7
f 4//8 3//8 8//8
f 5//9 4//9 9//9
f 6//10 5//10 10//10
f 2//11 11//11 7//11
f 3//12 7//12 8//12
f 4//13 8//13 9//13
f 5//14 9//14 10//14
f 6//15 10//15 11//15
f 7//16 11//16 12//16
f 8//17 7//17 12//17
f 9//18 8//18 12//18
f 10//19 9//19 12//19
f 11//20 10//20 12//20
