# WaveFront *.obj file (generated by CINEMA 4D)

mtllib ./Rock.mtl

v 0.89692997932434 -0.11670099943876 -1.07806098461151
v 0.73631399869919 -0.07603300362825 1.06676197052002
v -1.05208802223206 -0.06459999829531 0.95451301336288
v -0.6924409866333 -0.11429899930954 -0.83583498001099
v 1.30375301837921 1.08375298976898 -1.02354204654694
v 0.44400501251221 1.03271198272705 1.51382100582123
v -1.01977503299713 1.17495000362396 1.10596096515656
v -0.6818619966507 1.18045794963837 -1.48157298564911
v 1.04540705680847 -0.15759700536728 -0.14799599349499
v 0.06726499646902 -0.07271300256252 -0.78352200984955
v 1.20036101341248 0.53824502229691 -1.22168505191803
v -0.15456299483776 -0.11450000107288 1.22898697853088
v 1.15526795387268 0.47803899645805 1.3815850019455
v -1.0946329832077 -0.25401800870895 -0.11845900118351
v -1.64805996417999 0.45200899243355 0.85358601808548
v -1.18572700023651 0.48155900835991 -1.13355505466461
v 0.97543102502823 1.24655902385712 0.04789499938488
v 0.10525800287724 1.12681996822357 -1.5850670337677
v -0.34484800696373 1.15237998962402 1.73000001907349
v -1.17709302902222 1.30324304103851 0.00979799963534
v -0.01578900031745 -0.31270599365234 -0.06024200096726
v 0.04610700160265 1.35156500339508 -0.2537299990654
v 1.17518198490143 0.69246900081635 0.16903199255466
v 0.26007699966431 0.45263999700546 1.36545097827911
v -1.64888095855713 0.42981898784637 -0.06403099745512
v -0.19982400536537 0.33682000637054 -1.53642404079437
v 1.00886595249176 -0.12645900249481 0.47025701403618
v -0.32145801186562 -0.0603049993515 -0.70204597711563
v 1.38582503795624 0.80757600069046 -1.18181395530701
v -0.53787302970886 -0.05799699947238 1.15437805652618
v 0.93632102012634 0.67754602432251 1.42649400234222
v -0.86236399412155 -0.21920299530029 -0.53710800409317
v -1.28158795833588 0.8839910030365 1.2180769443512
v -0.97452700138092 0.92607402801514 -1.43144202232361
v 0.80845701694489 1.34641194343567 0.90207797288895
v -0.17499199509621 1.14717304706573 -1.80116295814514
v -0.61028498411179 1.1479480266571 1.32788097858429
v -1.35602295398712 1.24503600597382 -0.71684902906418
v 1.04202198982239 -0.19049400091171 -0.63786602020264
v 0.46894899010658 -0.14285899698734 -1.02680599689484
v 1.08127200603485 0.17511500418186 -1.28755605220795
v 0.24358600378036 -0.14147600531578 1.1910719871521
v 1.01458704471588 0.18349100649357 1.31294798851013
v -1.1557309627533 -0.21784700453281 0.45946899056435
v -1.57134103775024 0.11027900129557 0.77070897817612
v -1.06327605247498 0.07452099770308 -1.01560699939728
v 1.23195397853851 1.21686601638794 -0.5944709777832
v 0.77045398950577 1.12219202518463 -1.29970300197601
v -0.06527899950743 1.1029280424118 1.79604399204254
v -1.17642998695374 1.28123104572296 0.646380007267
v -0.47622498869896 -0.27404299378395 -0.03739000111818
v 0.48042300343513 -0.3121150135994 -0.11106000095606
v 0.17279300093651 -0.18847300112247 -0.53245997428894
v -0.10627400130033 -0.27435100078583 0.59596300125122
v -0.19800999760628 1.3603800535202 0.63081800937653
v 0.0629979968071 1.27630400657654 -0.99431401491165
v 0.61150097846985 1.35234403610229 -0.2907800078392
v -0.60334300994873 1.34358394145966 -0.01127600017935
v 1.26746094226837 0.63072997331619 1.00835597515106
v 1.2671070098877 0.60020798444748 -0.68972700834274
v 1.26889896392822 0.24109099805355 -0.06388399749994
v 1.05091202259064 1.06850302219391 0.19751200079918
v -1.04357004165649 0.40292799472809 1.2895929813385
v 0.66702902317047 0.43993198871613 1.44868397712708
v -0.13512000441551 0.15667699277401 1.50502002239227
v -0.06686999648809 0.65205997228622 1.60219299793243
v -1.75989699363708 0.31961399316788 -0.72461402416229
v -1.64648294448853 0.462612003088 0.45902401208878
v -1.54844295978546 -0.15380099415779 -0.2555870115757
v -1.4830549955368 1.06851696968079 0.04532999917865
v -0.7754579782486 0.49755901098251 -1.40250301361084
v 0.55631697177887 0.44926598668098 -1.49650299549103
v 0.1532260030508 0.83924901485443 -1.83222997188568
v -0.18051500618458 0.06094599887729 -1.23389899730682
v -0.63091999292374 -0.22632800042629 0.59232598543167
v -0.67792099714279 1.32970297336578 0.69818300008774
v 1.11592996120453 1.06789302825928 0.98096698522568
v -0.94450902938843 0.74362498521805 1.3923419713974
v -1.71943998336792 0.91650599241257 -0.69977599382401
v -0.75104802846909 0.14905899763107 -1.12300598621368
v -0.35968801379204 -0.21967600286007 -0.59674799442291
v 0.54805797338486 -0.2841129899025 -0.65762197971344
v 0.3834539949894 -0.29814898967743 0.5331699848175
v 0.34278100728989 1.37088596820831 0.86369198560715
v 0.80156397819519 1.33331394195557 -0.71666502952576
v -0.5441780090332 1.29004800319672 -0.88940900564194
v 1.34766697883606 0.18976299464703 0.7468209862709
v 1.32379198074341 0.12737900018692 -0.85606002807617
v 1.42354297637939 0.8972060084343 -0.70703500509262
v -0.70669400691986 0.19063599407673 1.34693694114685
v 0.49427399039268 0.15343600511551 1.39945602416992
v 0.52418899536133 0.69141000509262 1.41045296192169
v -1.34643697738647 -0.07869700342417 -0.80808401107788
v -1.55037999153137 0.03351299837232 0.48764199018478
v -1.43431901931763 1.01709997653961 0.74677801132202
v -0.26319798827171 0.9167799949646 -1.71677398681641
v 0.80203700065613 0.85031801462173 -1.52858603000641
v 0.51271200180054 0.11469399929047 -1.19838297367096
# 98 vertices

vn -0.26031842827797 -0.94591408967972 0.19359974563122
vn -0.28806468844414 -0.9115903377533 0.29329460859299
vn -0.12252481281757 -0.94879329204559 0.29116827249527
vn -0.09256307780743 -0.98020654916763 0.17500631511211
vn -0.17541049420834 0.95064115524292 0.25595411658287
vn -0.09636572003365 0.95871239900589 0.26755213737488
vn -0.0913810133934 0.98496997356415 0.14657290279865
vn -0.11999049037695 0.98359870910645 0.13466964662075
vn 0.60586124658585 0.51567631959915 0.60581350326538
vn 0.45645248889923 0.60138094425201 0.65573781728745
vn -0.32588672637939 0.49330535531044 0.80650335550308
vn -0.57937443256378 0.58304131031036 -0.56955075263977
vn 0.22311328351498 -0.58530694246292 -0.7795102596283
vn 0.10822158306837 -0.76235830783844 -0.63804227113724
vn 0.13435983657837 -0.7306569814682 -0.66939359903336
vn -0.02298434264958 -0.93464893102646 -0.35482832789421
vn -0.0737576186657 -0.99461215734482 -0.07284530997276
vn -0.03548287972808 -0.99862438440323 -0.03860517591238
vn -0.0094351619482 -0.99106723070145 -0.13302892446518
vn -0.16096813976765 -0.96437305212021 -0.20993787050247
vn -0.06517300754786 -0.99576497077942 -0.06484285742044
vn 0.08215035498142 -0.99653398990631 -0.01308914739639
vn -0.23899087309837 -0.94381874799728 -0.22823129594326
vn -0.07052227854729 -0.98611831665039 0.15032382309437
vn -0.08746262639761 -0.96289443969727 0.2553126513958
vn 0.10360775887966 -0.96577781438828 0.237778455019
vn 0.11534401774406 -0.98269242048264 0.14495292305946
vn 0.09034957736731 0.94050139188766 0.32755780220032
vn -0.12572391331196 0.96479827165604 0.23099310696125
vn -0.07527594268322 0.99086105823517 0.11192801594734
vn 0.09186049550772 0.98358422517776 0.15531805157661
vn 0.09772723168135 0.99505811929703 -0.01757145673037
vn -0.0232922192663 0.9986834526062 -0.0457040630281
vn 0.04001401737332 0.98562771081924 -0.16412450373173
vn 0.14330270886421 0.97688752412796 -0.15860371291637
vn -0.05281573534012 0.99812656641006 -0.03088402748108
vn -0.0779098123312 0.99675637483597 -0.02017000876367
vn -0.06857966631651 0.99096018075943 -0.11530288308859
vn -0.00849882140756 0.99194341897964 -0.12639626860619
vn 0.90306943655014 -0.30392816662788 0.30346876382828
vn 0.9830482006073 0.18323494493961 -0.00642112642527
vn 0.98780637979507 0.15032969415188 0.04049086198211
vn 0.98654973506927 0.01641201786697 0.16263554990292
vn 0.98902255296707 0.1293685734272 0.07140157371759
vn 0.88221287727356 0.46670866012573 0.06231795623899
vn 0.83574712276459 0.53279763460159 0.13286618888378
vn 0.8736976981163 0.4755859375 0.10232498496771
vn -0.43356722593307 -0.51905298233032 0.7366161942482
vn -0.53973287343979 -0.28821513056755 0.79096174240112
vn -0.36925777792931 -0.57994961738586 0.72615921497345
vn -0.05978472530842 0.28982016444206 0.95521205663681
vn 0.00662828655913 0.17697367072105 0.98419326543808
vn -0.02203353494406 -0.39094850420952 0.92014878988266
vn 0.01710998825729 -0.39498260617256 0.91852927207947
vn 0.11722250282764 -0.31827700138092 0.94072240591049
vn 0.08633358031511 -0.21355164051056 0.97310954332352
vn -0.40121844410896 -0.40301841497421 -0.82255697250366
vn -0.48160946369171 -0.28092044591904 -0.83014214038849
vn -0.563501060009 -0.18841458857059 -0.80434226989746
vn -0.46107843518257 -0.33486902713776 -0.82174777984619
vn -0.94784766435623 -0.31827518343925 -0.01690246909857
vn -0.97844326496124 -0.20622801780701 0.01089595351368
vn -0.64362096786499 0.76250278949738 0.06589033454657
vn -0.63277000188828 0.74091190099716 0.2250592559576
vn -0.52348029613495 -0.07837568968534 -0.84842538833618
vn -0.34986084699631 -0.43462273478508 -0.82987976074219
vn -0.40713199973106 -0.17246775329113 -0.89693832397461
vn 0.27178546786308 -0.45095965266228 -0.85015767812729
vn 0.19600161910057 -0.58436232805252 -0.78746688365936
vn 0.262415766716 -0.4513067305088 -0.85291278362274
vn 0.36359480023384 -0.36113059520721 -0.85871040821075
vn -0.04237167909741 -0.85473030805588 -0.51734006404877
vn -0.19023768603802 -0.91080474853516 -0.3663937151432
vn -0.21216142177582 -0.88574326038361 -0.41285148262978
vn 0.01095333509147 -0.7797771692276 -0.62596130371094
vn 0.7357851266861 0.41338723897934 0.53640580177307
vn 0.95706421136856 0.27809658646584 -0.08179493248463
vn 0.89509785175323 0.44315573573112 -0.04912103712559
vn 0.82967698574066 0.55795049667358 -0.01809287071228
vn -0.55785220861435 -0.15902176499367 0.81456309556961
vn -0.13607560098171 -0.52259546518326 0.84165155887604
vn -0.04192062467337 -0.38866516947746 0.9204249382019
vn -0.56130331754684 0.15132123231888 0.81365865468979
vn -0.64775514602661 -0.03588524088264 -0.76100301742554
vn -0.96739888191223 0.14205633103848 0.2096648812294
vn -0.96693539619446 0.22380849719048 0.12225265055895
vn -0.63616520166397 0.76860988140106 0.06732542812824
vn -0.31752508878708 -0.57009929418564 -0.75773650407791
vn -0.29243952035904 -0.66417133808136 -0.68800842761993
vn -0.14525131881237 -0.95143860578537 -0.27141603827476
vn 0.08776663243771 -0.79227477312088 -0.60381931066513
vn 0.01194010209292 -0.78068172931671 -0.62481474876404
vn 0.11377012729645 -0.95198357105255 -0.28422465920448
vn 0.17089669406414 -0.97641313076019 -0.13195353746414
vn 0.24609959125519 -0.96827310323715 0.04338444024324
vn 0.34182518720627 -0.91807800531387 0.20071950554848
vn 0.37548023462296 -0.88709259033203 0.26847958564758
vn 0.17472849786282 0.88438475131989 0.43282052874565
vn 0.18809868395329 0.9818012714386 -0.02617498114705
vn 0.21298091113567 0.97694176435471 0.01496239006519
vn 0.25737705826759 0.95839315652847 -0.12344860285521
vn 0.17812363803387 0.93771153688431 -0.29827675223351
vn 0.26895779371262 0.91559243202209 -0.29891839623451
vn 0.10229001194239 0.96453005075455 -0.2433485686779
vn 0.02622905187309 0.98339635133743 -0.17956504225731
vn -0.06630001217127 0.98378443717957 -0.16665069758892
vn 0.50635427236557 -0.81061369180679 0.29412707686424
vn 0.8030811548233 -0.59557104110718 -0.01886119134724
vn 0.80788511037827 -0.58839851617813 0.03329920768738
vn 0.96823263168335 0.23545336723328 -0.08418607711792
vn 0.81043076515198 -0.5795813202858 0.08536653965712
vn 0.60857909917831 -0.70666700601578 -0.36090606451035
vn 0.94367754459381 -0.01078161131591 -0.33069080114365
vn 0.96327155828476 -0.0968906506896 0.25043973326683
vn 0.85708105564117 -0.51507902145386 -0.01028262544423
vn 0.89473122358322 0.43944951891899 -0.07962488383055
vn -0.34727156162262 -0.61650204658508 0.70663124322891
vn -0.29083946347237 -0.65323549509048 0.69906777143478
vn -0.08030893653631 -0.68067902326584 0.72816652059555
vn -0.12512251734734 0.39745423197746 0.90905141830444
vn 0.14013589918613 -0.69654709100723 0.70369321107864
vn 0.20469459891319 -0.73014295101166 0.6519136428833
vn 0.16229155659676 -0.2783579826355 0.94666695594788
vn 0.09095734357834 -0.16456066071987 0.98216420412064
vn 0.10962855815887 -0.12486638128757 0.98609834909439
vn 0.13638834655285 -0.10343265533447 0.98524105548859
vn 0.2154127061367 -0.23635205626488 0.94748884439468
vn -0.0683680921793 -0.85443508625031 -0.51504027843475
vn -0.11984756588936 -0.92722845077515 -0.35480132699013
vn -0.16729709506035 -0.96884322166443 -0.18263201415539
vn -0.89757281541824 -0.43573838472366 -0.06704574078321
vn -0.41391748189926 -0.90276080369949 0.11702682077885
vn -0.44100251793861 -0.87638998031616 0.19353897869587
vn -0.4648756980896 -0.84363633394241 0.26864159107208
vn -0.97598779201508 -0.21750672161579 -0.0117743788287
vn -0.92392021417618 0.36588031053543 0.11181719601154
vn -0.88500332832336 0.42536023259163 0.18930879235268
vn -0.59784066677094 0.70596557855606 0.3797355890274
vn -0.45584592223167 0.0678383782506 -0.88746970891953
vn 0.1336632668972 0.23949535191059 -0.96165281534195
vn -0.30234634876251 -0.31301590800285 -0.90033757686615
vn 0.31121677160263 0.64092725515366 -0.70168107748032
vn 0.37036719918251 0.60973703861237 -0.70074880123138
vn 0.42786115407944 0.57581984996796 -0.69668239355087
vn 0.32168740034103 -0.30691802501678 -0.89572232961655
vn 0.44937887787819 -0.26531708240509 -0.85303312540054
vn 0.0600537955761 -0.45198351144791 -0.89000248908997
vn -0.0692544952035 -0.54833996295929 -0.83338296413422
# 148 normals

vt 0.15290600061417 0.49868297576904 0
vt 0.08261299878359 0.50666099786758 0
vt 0.05828500166535 0.56986701488495 0
vt 0.13763600587845 0.56341099739075 0
vt 0.09978300333023 0.38765501976013 0
vt 0.15563000738621 0.40232908725739 0
vt 0.2063159942627 0.37818598747253 0
vt 0.15502800047398 0.34408903121948 0
vt 0.87066298723221 0.17489206790924 0
vt 0.79497599601746 0.24897003173828 0
vt 0.85447299480438 0.34929597377777 0
vt 0.89617502689362 0.28288507461548 0
vt 0.91673302650452 0.60451704263687 0
vt 0.90565299987793 0.68260198831558 0
vt 0.94408297538757 0.6946359872818 0
vt 0.94924002885818 0.58770501613617 0
vt 0.46067199110985 0.06353497505188 0
vt 0.48919099569321 0 0
vt 0.36924600601196 0.0008419752121 0
vt 0.33680900931358 0.0820050239563 0
vt 0.44732201099396 0.27624702453613 0
vt 0.48160299658775 0.32305908203125 0
vt 0.51267302036285 0.31059002876282 0
vt 0.4857479929924 0.25495207309723 0
vt 0.27008399367332 0.52388203144073 0
vt 0.22369199991226 0.5024099946022 0
vt 0.21536299586296 0.57853901386261 0
vt 0.27684599161148 0.58352899551392 0
vt 0.26653298735619 0.64604699611664 0
vt 0.22081099450588 0.63584303855896 0
vt 0.22645600140095 0.69473904371262 0
vt 0.28852498531342 0.69562101364136 0
vt 0.14066199958324 0.6292490363121 0
vt 0.05370799824595 0.62001001834869 0
vt 0.06004900112748 0.66898202896118 0
vt 0.14962799847126 0.68874698877335 0
vt 0.01139300037175 0.38338398933411 0
vt 0.04202299937606 0.40249800682068 0
vt 0.11553300172091 0.29994606971741 0
vt 0.04602000117302 0.27712798118591 0
vt 0.11622499674559 0.14968001842499 0
vt 0.16569200158119 0.19939601421356 0
vt 0.22613599896431 0.12763297557831 0
vt 0.13386699557304 0.09467208385468 0
vt 0.2061930000782 0.27430200576782 0
vt 0.25835400819778 0.32152998447418 0
vt 0.3355750143528 0.26784098148346 0
vt 0.27368301153183 0.18755698204041 0
vt 0.40459901094437 0.71324104070663 0
vt 0.47746101021767 0.72633099555969 0
vt 0.52045500278473 0.68473398685455 0
vt 0.42294800281525 0.6540629863739 0
vt 0.43983998894691 0.55387800931931 0
vt 0.53957498073578 0.58073699474335 0
vt 0.5293750166893 0.47910499572754 0
vt 0.42272898554802 0.45920705795288 0
vt 0.7316780090332 0.7071830034256 0
vt 0.68384397029877 0.71196401119232 0
vt 0.67233097553253 0.78745198249817 0
vt 0.74412602186203 0.81448501348495 0
vt 0.09085100144148 0.43185901641846 0
vt 0.05440099909902 0.40249800682068 0
vt 0.00659799994901 0.4823180437088 0
vt 0.01627100072801 0.53629899024963 0
vt 0.78605997562408 0.07015705108643 0
vt 0.81868302822113 0.13747298717499 0
vt 0.85524201393127 0.12592005729675 0
vt 0.85705798864365 0.07013297080994 0
vt 0.75873601436615 0.16800999641418 0
vt 0.69398099184036 0.26822602748871 0
vt 0.72080600261688 0.2511590719223 0
vt 0.82910299301147 0.18261098861694 0
vt 0.4310260117054 0.1767510175705 0
vt 0.34848800301552 0.22554802894592 0
vt 0.40806698799133 0.3180810213089 0
vt 0.74783402681351 0.36111903190613 0
vt 0.75892800092697 0.48814606666565 0
vt 0.82172799110413 0.49437499046326 0
vt 0.83467197418213 0.40157604217529 0
vt 0.76645600795746 0.63999998569489 0
vt 0.76674097776413 0.7071830034256 0
vt 0.84410101175308 0.70064699649811 0
vt 0.85344099998474 0.62884199619293 0
vt 0.49106898903847 0.16630399227142 0
vt 0.55499798059464 0.05746304988861 0
vt 0.60893702507019 0.07216203212738 0
vt 0.56542599201202 0.19996905326843 0
vt 0.64243698120117 0.16996502876282 0
vt 0.66120302677155 0.07163608074188 0
vt 0.5564129948616 0.27154302597046 0
vt 0.56000399589539 0.3103209733963 0
vt 0.61970800161362 0.32110798358917 0
vt 0.62828797101974 0.25590300559998 0
vt 0.90706098079681 0.13355898857117 0
vt 0.93435597419739 0.18762803077698 0
vt 0.61733502149582 0.67842602729797 0
vt 0.6226270198822 0.58178001642227 0
vt 0.67233097553253 0.66106402873993 0
vt 0.66291701793671 0.56206601858139 0
vt 0.86957401037216 0.49092197418213 0
vt 0.93956398963928 0.50632899999619 0
vt 0.79142600297928 0.71174299716949 0
vt 0.75205600261688 0.7071830034256 0
vt 0.74412602186203 0.82121503353119 0
vt 0.79158198833466 0.86621797084808 0
vt 0.99987900257111 0.70675802230835 0
vt 1 0.60653203725815 0
vt 0.67777299880981 0.45977807044983 0
vt 0.67233097553253 0.59665703773499 0
vt 0.67491400241852 0.68764799833298 0
vt 0.38451901078224 0.72633099555969 0
vt 0.33691999316216 0.78591597080231 0
vt 0.33680900931358 0.8335599899292 0
vt 0.38773700594902 0.80150902271271 0
vt 0.4480789899826 0.354287981987 0
vt 0.50620502233505 0.35097706317902 0
vt 0.559475004673 0.34202897548676 0
vt 0.60996001958847 0.36111903190613 0
vt 0.32094898819923 0.67374700307846 0
vt 0.27858799695969 0.74924004077911 0
vt 0.32468301057816 0.72289299964905 0
vt 0.21838100254536 0.75255298614502 0
vt 0.14323100447655 0.75248301029205 0
vt 0.06926599889994 0.72273498773575 0
vt 0.80834698677063 0.36111903190613 0
vt 0 0.24132704734802 0
vt 0.0562210008502 0.14588403701782 0
vt 0.08564499765635 0.06534504890442 0
vt 0.18790200352669 0.03519105911255 0
vt 0.11627700179815 0.01477301120758 0
vt 0.27304801344872 0.06412303447723 0
vt 0.31651800870895 0.0684289932251 0
vt 0.33680900931358 0.14042603969574 0
vt 0.33680900931358 0.67490899562836 0
vt 0.34013700485229 0.6101970076561 0
vt 0.33998799324036 0.53629899024963 0
vt 0.33683300018311 0.4768180847168 0
vt 0.42952799797058 0.40032505989075 0
vt 0.35316199064255 0.41968607902527 0
vt 0.5176500082016 0.41267108917236 0
vt 0.60416597127914 0.48223900794983 0
vt 0.58645898103714 0.42346107959747 0
vt 0.67095398902893 0.49141299724579 0
vt 0.64647698402405 0.44110906124115 0
vt 0 0.60844904184341 0
vt 0.73650801181793 0.09230697154999 0
vt 0.69413298368454 0.14370405673981 0
vt 0.0123079996556 0.68298399448395 0
vt 0.01983200013638 0.74259704351425 0
vt 0.91385900974274 0.07696902751923 0
vt 0.29124701023102 0.45453000068665 0
vt 0.23224399983883 0.44050598144531 0
vt 0.68531602621078 0.38871598243713 0
vt 0.13014799356461 0.43624007701874 0
vt 0.86710798740387 0.41728806495666 0
vt 0.56392198801041 0.00009107589722 0
vt 0.58209902048111 0.00738203525543 0
vt 0.2933090031147 0.02524602413177 0
vt 0.20794199407101 0 0
vt 0.63956898450851 0.39286005496979 0
vt 0.57947200536728 0.3652640581131 0
vt 0.47720101475716 0.36111903190613 0
vt 0.69382202625275 0.23710000514984 0
vt 0.69398099184036 0.15019702911377 0
vt 0.66857498884201 0.31188201904297 0
# 165 texture coordinates

o rock
usemtl Material
f 75/4/4 30/3/3 3/2/2 44/1/1
f 76/8/8 50/7/7 7/6/6 37/5/5
f 77/12/9 35/11/10 6/10/10 31/9/9
f 78/16/11 37/15/11 7/14/11 33/13/11
f 79/20/12 38/19/12 8/18/12 34/17/12
f 80/24/13 28/23/15 4/22/14 46/21/13
f 81/28/19 51/27/18 14/26/17 32/25/16
f 82/32/23 52/31/22 21/30/21 53/29/20
f 83/36/27 42/35/26 12/34/25 54/33/24
f 84/40/31 55/39/30 19/38/29 49/37/28
f 85/44/35 56/43/34 22/42/33 57/41/32
f 86/48/39 38/47/38 20/46/37 58/45/36
f 87/52/40 59/51/40 13/50/40 43/49/40
f 88/56/44 60/55/43 23/54/42 61/53/41
f 89/60/47 47/59/47 17/58/46 62/57/45
f 90/64/50 63/63/49 15/62/49 45/61/48
f 91/68/52 64/67/52 24/66/51 65/65/51
f 92/72/56 49/71/55 19/70/54 66/69/53
f 93/75/60 67/74/59 16/73/58 46/21/57
f 94/79/62 68/78/62 25/77/61 69/76/61
f 95/83/64 50/82/64 20/81/63 70/80/63
f 96/85/67 71/84/66 16/73/58 34/17/65
f 97/89/71 72/88/70 26/87/69 73/86/68
f 98/93/75 40/92/74 10/91/73 74/90/72
f 51/27/18 75/4/4 44/1/1 14/26/17
f 21/30/21 54/33/24 75/4/4 51/27/18
f 54/33/24 12/34/25 30/3/3 75/4/4
f 55/39/30 76/8/8 37/5/5 19/38/29
f 22/42/33 58/45/36 76/8/8 55/39/30
f 58/45/36 20/46/37 50/7/7 76/8/8
f 59/95/76 77/12/9 31/9/9 13/94/76
f 23/54/42 62/97/45 77/96/78 59/51/77
f 62/97/45 17/99/46 35/98/79 77/96/78
f 63/101/49 78/16/80 33/13/80 15/100/49
f 24/105/82 66/104/53 78/103/81 63/102/81
f 66/107/83 19/106/83 37/15/83 78/16/83
f 67/74/59 79/20/84 34/17/65 16/73/58
f 25/77/86 70/80/86 79/109/85 67/108/85
f 70/80/63 20/81/63 38/110/87 79/109/87
f 71/84/66 80/24/88 46/21/57 16/73/58
f 26/87/89 74/90/89 80/24/88 71/84/66
f 74/114/72 10/113/73 28/112/90 80/111/90
f 28/23/15 81/116/91 32/115/16 4/22/14
f 10/91/92 53/117/92 81/116/91 28/23/15
f 53/29/20 21/30/21 51/27/18 81/28/19
f 40/92/74 82/118/23 53/117/20 10/91/73
f 1/121/93 39/120/94 82/32/94 40/119/93
f 39/120/94 9/122/95 52/31/22 82/32/94
f 52/31/22 83/36/27 54/33/24 21/30/21
f 9/122/95 27/123/96 83/36/27 52/31/22
f 27/123/96 2/124/97 42/35/26 83/36/27
f 35/11/98 84/125/31 49/71/28 6/10/98
f 17/127/100 57/41/32 84/40/31 35/126/99
f 57/41/32 22/42/33 55/39/30 84/40/31
f 47/128/101 85/44/35 57/41/32 17/127/100
f 5/130/103 48/129/102 85/44/35 47/128/101
f 48/129/102 18/131/104 56/43/34 85/44/35
f 56/43/34 86/48/39 58/45/36 22/42/33
f 18/131/104 36/132/105 86/48/39 56/43/34
f 36/132/105 8/133/106 38/47/38 86/48/39
f 27/135/96 87/52/107 43/49/107 2/134/97
f 9/136/109 61/53/109 87/52/108 27/135/108
f 61/53/41 23/54/42 59/51/77 87/52/110
f 39/137/111 88/56/111 61/53/109 9/136/109
f 1/139/112 41/138/112 88/56/112 39/137/112
f 41/138/113 11/140/113 60/55/113 88/56/113
f 60/55/43 89/141/114 62/97/114 23/54/42
f 11/140/115 29/142/115 89/141/115 60/55/115
f 29/142/116 5/144/116 47/143/47 89/141/47
f 30/3/118 90/64/50 45/61/48 3/2/117
f 12/34/119 65/145/119 90/64/50 30/3/118
f 65/65/51 24/66/51 63/147/120 90/146/120
f 42/35/121 91/148/121 65/145/119 12/34/119
f 2/124/122 43/149/122 91/148/121 42/35/121
f 43/150/123 13/94/125 64/67/124 91/68/123
f 64/67/124 92/72/56 66/69/53 24/66/82
f 13/94/125 31/9/126 92/72/56 64/67/124
f 31/9/126 6/10/127 49/71/55 92/72/56
f 32/115/16 93/75/129 46/21/128 4/22/14
f 14/26/17 69/152/130 93/151/129 32/25/16
f 69/76/61 25/77/61 67/108/131 93/153/131
f 44/1/1 94/154/133 69/152/132 14/26/132
f 3/2/2 45/61/134 94/154/133 44/1/1
f 45/155/135 15/100/135 68/78/62 94/79/62
f 68/78/136 95/83/136 70/80/86 25/77/86
f 15/100/137 33/13/137 95/83/136 68/78/136
f 33/13/138 7/14/138 50/82/64 95/83/64
f 36/156/139 96/85/67 34/17/65 8/18/139
f 18/157/140 73/86/140 96/85/140 36/156/140
f 73/86/141 26/87/141 71/84/66 96/85/67
f 48/129/143 97/159/143 73/158/142 18/131/142
f 5/144/144 29/142/144 97/161/143 48/160/143
f 29/142/146 11/140/145 72/162/70 97/161/71
f 72/88/70 98/93/75 74/90/72 26/87/69
f 11/164/145 41/163/147 98/93/147 72/88/70
f 41/163/147 1/165/148 40/92/148 98/93/147

